[i]Piratas del Caribe: el cofre del hombre muerto[/i]
[i]Pirates of the Caribbean: Dead Man's Chest[/i]

General
Format                                   : Matroska
Format version                           : Version 2
File size                                : 12.2 GiB
Duration                                 : 2 h 24 min
Overall bit rate                         : 12.1 Mb/s
Encoded date                             : UTC 2012-10-01 13:34:48

Video
ID                                       : 1
Format                                   : AVC
Format/Info                              : Advanced Video Codec
Format profile                           : High@L5.1
Codec ID                                 : V_MPEG4/ISO/AVC
Duration                                 : 2 h 24 min
Bit rate                                 : 10.2 Mb/s
Width                                    : 1 920 pixels
Height                                   : 800 pixels
Display aspect ratio                     : 2.40:1
Frame rate mode                          : Constant
Frame rate                               : 25.000 FPS
Original frame rate                      : 23.976 FPS
Scan type                                : Progressive
Bits/(Pixel*Frame)                       : 0.265
Stream size                              : 10.5 GiB (86%)
Writing library                          : x264 core 55

Audio #1
ID                                       : 2
Format                                   : DTS
Format/Info                              : Digital Theater Systems
Muxing mode                              : Header stripping
Codec ID                                 : A_DTS
Duration                                 : 2h 24mn
Bit rate mode                            : Constant
Bit rate                                 : 755 kb/s
Channel(s)                               : 6 channels
Sampling rate                            : 48.0 kHz
Bit depth                                : 24 bits
Compression mode                         : Lossy
Stream size                              : 781 MiB (6%)
Language                                 : Spanish

Audio #2
ID                                       : 3
Format                                   : DTS
Format/Info                              : Digital Theater Systems
Muxing mode                              : Header stripping
Codec ID                                 : A_DTS
Duration                                 : 2 h 24 min
Bit rate mode                            : Constant
Bit rate                                 : 755 kb/s
Channel(s)                               : 6 channels
Sampling rate                            : 48.0 kHz
Bit depth                                : 24 bits
Compression mode                         : Lossy
Stream size                              : 781 MiB (6%)
Language                                 : English
Text
ID                                       : 4
Format                                   : ASS
Codec ID                                 : S_TEXT/ASS
Codec ID/Info                            : Advanced Sub Station Alpha
Compression mode                         : Lossless
Language                                 : English

┬íDisfruta y siembra!